/* XPM */
static const char * All_Back_Icon[] = {
"29 29 33 1",
" 	c None",
".	c #000000",
"+	c #010000",
"@	c #020000",
"#	c #710000",
"$	c #820000",
"%	c #AB0000",
"&	c #B50000",
"*	c #FF0000",
"=	c #B00000",
"-	c #7B0000",
";	c #0B0000",
">	c #C00000",
",	c #F30000",
"'	c #AF0000",
")	c #330000",
"!	c #0F0000",
"~	c #310000",
"{	c #3B0000",
"]	c #750000",
"^	c #460000",
"/	c #9B0000",
"(	c #F70000",
"_	c #1B0000",
":	c #4B0000",
"<	c #F90000",
"[	c #1F0000",
"}	c #030000",
"|	c #380000",
"1	c #D10000",
"2	c #9A0000",
"3	c #450000",
"4	c #210000",
"                             ",
"                             ",
"                             ",
"                             ",
"           .     .           ",
"           .+    ..          ",
"           ..@   ...         ",
"           .#@@  .$..        ",
"           .%&@@ .*$..       ",
"           .%*&@@.**$..      ",
"............%**=++***-..     ",
".;>>>>>>>>>>,***'@)***-..    ",
".!***************&@~***$..   ",
".!****************&@~***$..  ",
".!*****************&@~***$.. ",
".!******************'+{***]..",
".!******************^+/**(_+ ",
".!*****************:+/**<[+  ",
".!****************:+/**<[+   ",
".!***************:+/**<[+    ",
".}||||||||||1***^.2**(_+     ",
" ...........%**3..**(_+      ",
"           .%*:...*<[+       ",
"           .%:.  .<[+        ",
"           .4.   ._+         ",
"           ..    .+          ",
"           .     .           ",
"                             ",
"                             "};
