/* XPM */
static const char * Generate_Icon[] = {
"29 29 46 1",
" 	c None",
".	c #030304",
"+	c #101415",
"@	c #070809",
"#	c #000000",
"$	c #040506",
"%	c #7F9EA9",
"&	c #ADD8E6",
"*	c #8CAEBA",
"=	c #080A0B",
"-	c #020404",
";	c #708B95",
">	c #040404",
",	c #050505",
"'	c #131313",
")	c #080808",
"!	c #718D96",
"~	c #575757",
"{	c #B7B7B7",
"]	c #2B2B2B",
"^	c #070707",
"/	c #7B99A3",
"(	c #6F8C95",
"_	c #BFBFBF",
":	c #060707",
"<	c #2F3B3F",
"[	c #A8D2E0",
"}	c #2D393C",
"|	c #A8D1DF",
"1	c #8AABB7",
"2	c #B5B5B5",
"3	c #272727",
"4	c #060606",
"5	c #090B0C",
"6	c #020303",
"7	c #555555",
"8	c #283235",
"9	c #080A0A",
"0	c #050606",
"a	c #020204",
"b	c #585858",
"c	c #8E8E8E",
"d	c #9A9A9A",
"e	c #090909",
"f	c #030303",
"g	c #020202",
"                             ",
"           .+++++++@##       ",
"          $%&&&&&&*=-        ",
"         $%&&&&&&*=-         ",
"        $%&&&&&&*=-          ",
"       $%&&&&&&*=-           ",
"      $%&&&&&&*=-            ",
"     $%&&&&&&*=-             ",
"    $%&&&&&&;>-              ",
"   $%&&&&&&;,')              ",
"  $%&&&&&&!,~{]^             ",
" #/&&&&&&(,~__{]^            ",
" :<[&&&&(,~____{]^           ",
"  :}|&&1>]______234          ",
"   :}|*56>7______{]^         ",
"    :89-  >7______{]^        ",
"     0a    >7______{]^       ",
"            >7______{]^      ",
"             >7______{]^     ",
"              >7______{]^    ",
"               >7______{]^   ",
"                >7______{]^  ",
"                 >b______23) ",
"                  ,b______c# ",
"                   >7____de> ",
"                    >7__de>  ",
"                     >7de>   ",
"                      ,fg    ",
"                             "};
