/* XPM */
static const char * Generate_Icon_Small[] = {
"15 15 26 1",
" 	c None",
".	c #1F282A",
"+	c #161C1D",
"@	c #3F4E53",
"#	c #ACD6E4",
"$	c #ADD8E6",
"%	c #5B7379",
"&	c #3A4447",
"*	c #191C1D",
"=	c #405155",
"-	c #ACD7E5",
";	c #394346",
">	c #676767",
",	c #494949",
"'	c #596E76",
")	c #374145",
"!	c #696969",
"~	c #BFBFBF",
"{	c #BEBEBE",
"]	c #484848",
"^	c #556B73",
"/	c #1C1D1E",
"(	c #636363",
"_	c #5E5E5E",
":	c #626262",
"<	c #656565",
"      ....+    ",
"     @#$$%     ",
"    @#$$%      ",
"   @#$$%       ",
"  @#$$&*       ",
" =-$$;>,       ",
" '$$)!~{]      ",
"  ^%/(~~{]     ",
"      _~~{,    ",
"       _~~{,   ",
"        _~~{,  ",
"         (~~{] ",
"          (~~: ",
"           _<  ",
"               "};
