/* XPM */
static const char * Generate_Icon[] = {
"29 29 45 1",
" 	c None",
".	c #040304",
"+	c #161016",
"@	c #090609",
"#	c #000000",
"$	c #060406",
"%	c #B078B0",
"&	c #F0A3F0",
"*	c #C284C2",
"=	c #0B080B",
"-	c #040204",
";	c #9B6A9B",
">	c #040404",
",	c #050505",
"'	c #131313",
")	c #080808",
"!	c #9D6B9D",
"~	c #575757",
"{	c #B7B7B7",
"]	c #2B2B2B",
"^	c #070707",
"/	c #AA74AA",
"(	c #9B699B",
"_	c #BFBFBF",
":	c #080608",
"<	c #422C42",
"[	c #E99FE9",
"}	c #3F2B3F",
"|	c #E89EE8",
"1	c #BF82BF",
"2	c #B5B5B5",
"3	c #272727",
"4	c #060606",
"5	c #0C080C",
"6	c #030203",
"7	c #555555",
"8	c #372637",
"9	c #0B070B",
"0	c #060506",
"a	c #585858",
"b	c #8E8E8E",
"c	c #9A9A9A",
"d	c #090909",
"e	c #030303",
"f	c #020202",
"                             ",
"           .+++++++@##       ",
"          $%&&&&&&*=-        ",
"         $%&&&&&&*=-         ",
"        $%&&&&&&*=-          ",
"       $%&&&&&&*=-           ",
"      $%&&&&&&*=-            ",
"     $%&&&&&&*=-             ",
"    $%&&&&&&;>-              ",
"   $%&&&&&&;,')              ",
"  $%&&&&&&!,~{]^             ",
" #/&&&&&&(,~__{]^            ",
" :<[&&&&(,~____{]^           ",
"  :}|&&1.]______234          ",
"   :}|*56>7______{]^         ",
"    :89-  >7______{]^        ",
"     0-    >7______{]^       ",
"            >7______{]^      ",
"             >7______{]^     ",
"              >7______{]^    ",
"               >7______{]^   ",
"                >7______{]^  ",
"                 >a______23) ",
"                  ,a______b# ",
"                   >7____cd> ",
"                    >7__cd>  ",
"                     >7cd>   ",
"                      ,ef    ",
"                             "};
