/* XPM */
static const char * New_Proj_Icon[] = {
"29 29 33 1",
" 	c None",
".	c #040204",
"+	c #120C12",
"@	c #161016",
"#	c #130E13",
"$	c #020202",
"%	c #050405",
"&	c #BB7FBB",
"*	c #F0A3F0",
"=	c #C586C5",
"-	c #040404",
";	c #131113",
">	c #050505",
",	c #F0E3F0",
"'	c #110F11",
")	c #FFFEFF",
"!	c #F0E4F0",
"~	c #FFFFFF",
"{	c #FFFCFF",
"]	c #F1E6F1",
"^	c #BA7FBA",
"/	c #030303",
"(	c #AFAEAF",
"_	c #AFAFAF",
":	c #A59DA5",
"<	c #0C0A0C",
"[	c #C384C3",
"}	c #1C161C",
"|	c #262026",
"1	c #030203",
"2	c #4B334B",
"3	c #604160",
"4	c #000000",
"                             ",
"    .+@@@@@@@@@@#$           ",
"    %&**********=-;          ",
"    %&**********=>,'         ",
"    %&**********=>)!'        ",
"    %&**********=>~{];       ",
"    %&**********=>~~{];      ",
"    %&**********^/(((_:<     ",
"    %&**********[}|||||}1    ",
"    %&*****************&%    ",
"    %&*****************&%    ",
"    %&*****************&%    ",
"    %&*****************&%    ",
"    %&*****************&%    ",
"    %&*****************&%    ",
"    %&*****************&%    ",
"    %&*****************&%    ",
"    %&*****************&%    ",
"    %&*****************&%    ",
"    %&*****************&%    ",
"    %&*****************&%    ",
"    %&*****************&%    ",
"    %&*****************&%    ",
"    %&*****************&%    ",
"    %&*****************&%    ",
"    %&*****************&%    ",
"    %&*****************&%    ",
"    %2333333333333333332%    ",
"    444444444444444444444    "};
