/* XPM */
static const char * New_Proj_Icon_Small[] = {
"15 15 22 1",
" 	c None",
".	c #231823",
"+	c #2C1E2C",
"@	c #261A26",
"#	c #452E45",
"$	c #F0A3F0",
"%	c #A879A8",
"&	c #766C76",
"*	c #A979A9",
"=	c #B1AFB1",
"-	c #B2A5B2",
";	c #A878A8",
">	c #ACA8AC",
",	c #F7F4F7",
"'	c #AEA2AE",
")	c #B77FB7",
"!	c #605060",
"~	c #695769",
"{	c #685668",
"]	c #291F29",
"^	c #1E151E",
"/	c #392639",
"  .+++++@      ",
"  #$$$$$%&     ",
"  #$$$$$*=-    ",
"  #$$$$$;>,'   ",
"  #$$$$$)!~{]  ",
"  #$$$$$$$$$#  ",
"  #$$$$$$$$$#  ",
"  #$$$$$$$$$#  ",
"  #$$$$$$$$$#  ",
"  #$$$$$$$$$#  ",
"  #$$$$$$$$$#  ",
"  #$$$$$$$$$#  ",
"  #$$$$$$$$$#  ",
"  #$$$$$$$$$#  ",
"  ^/////////^  "};
