/* XPM */
static const char * New_Proj_Icon[] = {
"29 29 32 1",
" 	c None",
".	c #030303",
"+	c #0C1011",
"@	c #101415",
"#	c #0E1213",
"$	c #020202",
"%	c #040505",
"&	c #87A9B3",
"*	c #ADD8E6",
"=	c #8EB1BD",
"-	c #040404",
";	c #111213",
">	c #050505",
",	c #E5ECEE",
"'	c #0F1011",
")	c #FEFFFF",
"!	c #E6EDEF",
"~	c #FFFFFF",
"{	c #FDFEFE",
"]	c #E8EEEF",
"^	c #86A7B3",
"/	c #AEAEAF",
"(	c #AEAEAE",
"_	c #AFAFAF",
":	c #9DA2A3",
"<	c #0A0B0C",
"[	c #8CAFBA",
"}	c #171A1B",
"|	c #202425",
"1	c #364448",
"2	c #45565C",
"3	c #000000",
"                             ",
"    .+@@@@@@@@@@#$           ",
"    %&**********=-;          ",
"    %&**********=>,'         ",
"    %&**********=>)!'        ",
"    %&**********=>~{];       ",
"    %&**********=>~~{];      ",
"    %&**********^./((_:<     ",
"    %&**********[}|||||}.    ",
"    %&*****************&%    ",
"    %&*****************&%    ",
"    %&*****************&%    ",
"    %&*****************&%    ",
"    %&*****************&%    ",
"    %&*****************&%    ",
"    %&*****************&%    ",
"    %&*****************&%    ",
"    %&*****************&%    ",
"    %&*****************&%    ",
"    %&*****************&%    ",
"    %&*****************&%    ",
"    %&*****************&%    ",
"    %&*****************&%    ",
"    %&*****************&%    ",
"    %&*****************&%    ",
"    %&*****************&%    ",
"    %&*****************&%    ",
"    %1222222222222222221%    ",
"    333333333333333333333    "};
