/* XPM */
static const char * Open_Proj_Icon[] = {
"29 29 74 1",
" 	c None",
".	c #000000",
"+	c #140E14",
"@	c #5D3F5D",
"#	c #0A070A",
"$	c #372637",
"%	c #F0A3F0",
"&	c #7C547C",
"*	c #080608",
"=	c #E59BE5",
"-	c #0D090D",
";	c #E49BE4",
">	c #0B080B",
",	c #0C080C",
"'	c #020202",
")	c #C686C6",
"!	c #B078B0",
"~	c #513751",
"{	c #050305",
"]	c #6F4B6F",
"^	c #EA9FEA",
"/	c #030103",
"(	c #AA74AA",
"_	c #040304",
":	c #100B10",
"<	c #0B070B",
"[	c #050405",
"}	c #5B3E5B",
"|	c #604160",
"1	c #322232",
"2	c #ECA0EC",
"3	c #130D13",
"4	c #AE76AE",
"5	c #D590D5",
"6	c #010101",
"7	c #835983",
"8	c #291B29",
"9	c #EDA1ED",
"0	c #150E15",
"a	c #A973A9",
"b	c #CF8DCF",
"c	c #020102",
"d	c #B379B3",
"e	c #E89EE8",
"f	c #795279",
"g	c #654465",
"h	c #573B57",
"i	c #1F161F",
"j	c #EEA2EE",
"k	c #181118",
"l	c #A570A5",
"m	c #C485C4",
"n	c #B87DB8",
"o	c #E89DE8",
"p	c #6F4C6F",
"q	c #694869",
"r	c #523852",
"s	c #EFA2EF",
"t	c #171017",
"u	c #1D141D",
"v	c #A06DA0",
"w	c #BA7FBA",
"x	c #040204",
"y	c #2C1D2C",
"z	c #090609",
"A	c #E69CE6",
"B	c #644464",
"C	c #1A121A",
"D	c #4D344D",
"E	c #110C11",
"F	c #765076",
"G	c #C082C0",
"H	c #956595",
"I	c #060306",
"                             ",
"                             ",
" .........                   ",
" +@@@@@@@@#                  ",
" $%%%%%%%%&*                 ",
" $%%%%%%%%=-                 ",
" $%%%%%%%%%&*                ",
" $%%%%%%%%%;->,,,,,,,,'      ",
" $%%%%%%%%%%)!!!!!!!!~{      ",
" $%%%%%%%%%%%%%%%%%%%]{      ",
" $%%%%%%%%%%%%%%%%%%%]{      ",
" $%%%^!!!!!!!!!!!!!!!~/      ",
" $%%%(_::::::::::::::-<<<<_[ ",
" $%%%}|%%%%%%%%%%%%%%%%%%%1  ",
" $%%234%%%%%%%%%%%%%%%%%%56  ",
" $%%4:^%%%%%%%%%%%%%%%%%%7<  ",
" $%%|}%%%%%%%%%%%%%%%%%%%8   ",
" $%90a%%%%%%%%%%%%%%%%%%bc   ",
" $%d-e%%%%%%%%%%%%%%%%%%f#   ",
" $%gh%%%%%%%%%%%%%%%%%%%i    ",
" $jkl%%%%%%%%%%%%%%%%%%m'    ",
" $n>o%%%%%%%%%%%%%%%%%%p#    ",
" $qr%%%%%%%%%%%%%%%%%%st     ",
" $uv%%%%%%%%%%%%%%%%%%wx     ",
" yzA%%%%%%%%%%%%%%%%%%Bz     ",
" CD%%%%%%%%%%%%%%%%%%jE      ",
" -FGGGGGGGGGGGGGGGGGGH[      ",
"......................I      ",
"                             "};
