/* XPM */
static const char * Open_Proj_Icon_Small[] = {
"15 15 44 1",
" 	c None",
".	c #181F21",
"+	c #252D31",
"@	c #1B2223",
"#	c #ADD8E6",
"$	c #546970",
"%	c #A4CDDA",
"&	c #1B2124",
"*	c #8FB3BE",
"=	c #7F9EA9",
"-	c #21292C",
";	c #A0C8D5",
">	c #2C373B",
",	c #45565C",
"'	c #303C3F",
")	c #323E42",
"!	c #1E262A",
"~	c #6A848D",
"{	c #82A3AD",
"]	c #3B494D",
"^	c #415157",
"/	c #ABD5E3",
"(	c #A9D3E1",
"_	c #20292C",
":	c #A2CAD8",
"<	c #4B5E64",
"[	c #78949F",
"}	c #6D8891",
"|	c #809FAA",
"1	c #344045",
"2	c #425257",
"3	c #AAD5E2",
"4	c #A6D0DD",
"5	c #20272A",
"6	c #23292D",
"7	c #495B61",
"8	c #6D8890",
"9	c #1B2122",
"0	c #688189",
"a	c #96BBC7",
"b	c #2C383B",
"c	c #151A1A",
"d	c #21282B",
"e	c #1A2022",
"               ",
".++++@         ",
"+####$         ",
"+####%&        ",
"+#####*====-   ",
"+##########+   ",
"+#;>,,,,,,,')! ",
"+#~{#########] ",
"+#^/########(_ ",
"+:<#########[  ",
"+}|#########1  ",
"+23########45  ",
"67#########8   ",
"90aaaaaaaaab   ",
"cdddddddddde   "};
