/* XPM */
static const char * Open_Proj_Icon[] = {
"29 29 78 1",
" 	c None",
".	c #000000",
"+	c #0E1213",
"@	c #425358",
"#	c #07090A",
"$	c #283235",
"%	c #ADD8E6",
"&	c #596F77",
"*	c #060808",
"=	c #A5CEDB",
"-	c #090C0D",
";	c #A4CDDA",
">	c #090C0C",
",	c #080A0A",
"'	c #090B0B",
")	c #020202",
"!	c #8EB2BD",
"~	c #7F9EA9",
"{	c #3A494E",
"]	c #050505",
"^	c #50646A",
"/	c #A9D3E1",
"(	c #3B494E",
"_	c #030303",
":	c #7B99A3",
"<	c #030304",
"[	c #0C0E0F",
"}	c #030404",
"|	c #040505",
"1	c #425257",
"2	c #45565C",
"3	c #242D31",
"4	c #AAD5E2",
"5	c #0E1112",
"6	c #7E9DA7",
"7	c #99BFCC",
"8	c #010101",
"9	c #5E767D",
"0	c #070A0B",
"a	c #1D2427",
"b	c #ABD5E3",
"c	c #0F1314",
"d	c #7A98A2",
"e	c #95BAC6",
"f	c #010202",
"g	c #81A1AB",
"h	c #A8D1DF",
"i	c #576D74",
"j	c #08090A",
"k	c #495B61",
"l	c #3E4E53",
"m	c #171D1E",
"n	c #ACD6E4",
"o	c #121617",
"p	c #77949E",
"q	c #8DB0BC",
"r	c #84A5B0",
"s	c #080A0B",
"t	c #A7D0DE",
"u	c #4C5F65",
"v	c #3B4A4E",
"w	c #ACD7E5",
"x	c #111516",
"y	c #151A1C",
"z	c #739099",
"A	c #86A8B3",
"B	c #1F2729",
"C	c #070809",
"D	c #A6CFDC",
"E	c #485A60",
"F	c #060709",
"G	c #13171A",
"H	c #38454A",
"I	c #0C0F10",
"J	c #556A71",
"K	c #8AADB8",
"L	c #6B868F",
"M	c #030506",
"                             ",
"                             ",
" .........                   ",
" +@@@@@@@@#                  ",
" $%%%%%%%%&*                 ",
" $%%%%%%%%=-                 ",
" $%%%%%%%%%&*                ",
" $%%%%%%%%%;>,'''''''')      ",
" $%%%%%%%%%%!~~~~~~~~{]      ",
" $%%%%%%%%%%%%%%%%%%%^]      ",
" $%%%%%%%%%%%%%%%%%%%^]      ",
" $%%%/~~~~~~~~~~~~~~~(_      ",
" $%%%:<[[[[[[[[[[[[[[-,,,,}| ",
" $%%%12%%%%%%%%%%%%%%%%%%%3  ",
" $%%456%%%%%%%%%%%%%%%%%%78  ",
" $%%6[/%%%%%%%%%%%%%%%%%%90  ",
" $%%21%%%%%%%%%%%%%%%%%%%a   ",
" $%bcd%%%%%%%%%%%%%%%%%%ef   ",
" $%g-h%%%%%%%%%%%%%%%%%%ij   ",
" $%kl%%%%%%%%%%%%%%%%%%%m    ",
" $nop%%%%%%%%%%%%%%%%%%q)    ",
" $rst%%%%%%%%%%%%%%%%%%^,    ",
" $uv%%%%%%%%%%%%%%%%%%wx     ",
" $yz%%%%%%%%%%%%%%%%%%A_     ",
" BCD%%%%%%%%%%%%%%%%%%EF     ",
" GH%%%%%%%%%%%%%%%%%%nI      ",
" >JKKKKKKKKKKKKKKKKKKL|      ",
"......................M      ",
"                             "};
