/* XPM */
static const char * Save_Proj_Icon[] = {
"29 29 52 1",
" 	c None",
".	c #060406",
"+	c #0A060A",
"@	c #040404",
"#	c #101010",
"$	c #141310",
"%	c #1E1A10",
"&	c #1D1A10",
"*	c #0B080B",
"=	c #161016",
"-	c #050305",
";	c #080408",
">	c #5D3F5D",
",	c #815881",
"'	c #3B383B",
")	c #BFBFBF",
"!	c #ADA285",
"~	c #8B6914",
"{	c #8C6A17",
"]	c #825882",
"^	c #F0A3F0",
"/	c #372637",
"(	c #EFA2EF",
"_	c #8B6A16",
":	c #624262",
"<	c #2B1D2B",
"[	c #B3AB98",
"}	c #9A8246",
"|	c #9C854B",
"1	c #323032",
"2	c #A2A2A2",
"3	c #000000",
"4	c #936493",
"5	c #644464",
"6	c #241823",
"7	c #120C0C",
"8	c #28191A",
"9	c #251923",
"0	c #75494B",
"a	c #FFA0A3",
"b	c #1E1414",
"c	c #452E2F",
"d	c #422D42",
"e	c #313131",
"f	c #6A6A6A",
"g	c #5B3E5B",
"h	c #585858",
"i	c #150F15",
"j	c #604160",
"k	c #261B26",
"l	c #232323",
"m	c #4D4D4D",
"                             ",
"      .+@######$%&##@*=====- ",
"     ;>,'))))))!~{))']^^^^^/ ",
"    ;>(]'))))))!~_))']^^^^^/ ",
"   ;>(^]'))))))!~_))']^^^^^/ ",
"  ;>(^^]'))))))!~_))']^^^^^/ ",
" .:(^^^]'))))))!~_))']^^^^^/ ",
" <(^^^^]'))))))[}|))']^^^^^/ ",
" /^^^^^]1222222222221]^^^^^/ ",
" /^^^^^]3333333333333]^^^^^/ ",
" /^^^^^^(((((((((((((^^^^^^/ ",
" /^^^^^^^^^^^^^^^^^^^^^^^^^/ ",
" /^^^^^^^^^^^^^^^^^^^^^^^^^/ ",
" /^^^^^^^^^^^^^^^^^^^^^^^^^/ ",
" /^^^^45555555555555554^^^^/ ",
" /^^^^67888888888888876^^^^/ ",
" /^^^^90aaaaaaaaaaaaa09^^^^/ ",
" /^^^^90aaaaaaaaaaaaa09^^^^/ ",
" /^^^^90aaaaaaaaaaaaa09^^^^/ ",
" /^^^^9bcccccccccccccb9^^^^/ ",
" /^^^^defffffffffffffed^^^^/ ",
" /^^^^gh)))))))))))))hg^^^^/ ",
" /^^^^gh)))))))))))))hg^^^^/ ",
" /^^^^gh)))))))))))))hg^^^^/ ",
" /^^^^gh)))))))))))))hg^^^^/ ",
" /^^^^gh)))))))))))))hg^^^^/ ",
" /^^^^gh)))))))))))))hg^^^^/ ",
" ijjjjklmmmmmmmmmmmmmlkjjjji ",
" 333333333333333333333333333 "};
