/* XPM */
static const char * Save_Proj_Icon_Small[] = {
"15 15 41 1",
" 	c None",
".	c #221722",
"+	c #1E1B1E",
"@	c #242024",
"#	c #262122",
"$	c #252124",
"%	c #281C28",
"&	c #2C1E2C",
"*	c #261A26",
"=	c #231723",
"-	c #9F6A9F",
";	c #645D64",
">	c #BFBFBF",
",	c #8E6D1D",
"'	c #AFA58B",
")	c #D892D8",
"!	c #F0A3F0",
"~	c #322232",
"{	c #B177B1",
"]	c #8D6C1A",
"^	c #271A27",
"/	c #B57BB5",
"(	c #8F6F20",
"_	c #B0A68D",
":	c #3B343B",
"<	c #716C71",
"[	c #ECA0EC",
"}	c #C686C6",
"|	c #785375",
"1	c #553C4E",
"2	c #3A282C",
"3	c #D28486",
"4	c #3D2A2E",
"5	c #F89C9F",
"6	c #3F2F39",
"7	c #594E4E",
"8	c #574557",
"9	c #201620",
"0	c #392639",
"a	c #261F26",
"b	c #2F2C2F",
"   .+@@@#$+%&&*",
"  =-;>>>,';)!!~",
" ={);>>>]';)!!~",
"^/!);>>>(_;)!!~",
"~!!):<<<<<:)!!~",
"~!![}}}}}}}[!!~",
"~!!!!!!!!!!!!!~",
"~!!|1111111|!!~",
"~!!233333332!!~",
"~!!455555554!!~",
"~!!677777776!!~",
"~!!8>>>>>>>8!!~",
"~!!8>>>>>>>8!!~",
"~!!8>>>>>>>8!!~",
"900abbbbbbba009"};
