/* XPM */
static const char * Save_Proj_Icon[] = {
"29 29 51 1",
" 	c None",
".	c #050606",
"+	c #070909",
"@	c #040404",
"#	c #101010",
"$	c #141310",
"%	c #1E1A10",
"&	c #1D1A10",
"*	c #080A0B",
"=	c #101415",
"-	c #030405",
";	c #435359",
">	c #5D747C",
",	c #383A3A",
"'	c #BFBFBF",
")	c #ADA285",
"!	c #8B6914",
"~	c #8C6A17",
"{	c #5E757C",
"]	c #ADD8E6",
"^	c #283235",
"/	c #ACD7E5",
"(	c #8B6A16",
"_	c #46575D",
":	c #1F2628",
"<	c #B3AB98",
"[	c #9A8246",
"}	c #9C854B",
"|	c #303132",
"1	c #A2A2A2",
"2	c #000000",
"3	c #6B858D",
"4	c #485B60",
"5	c #1B2022",
"6	c #120C0C",
"7	c #28191A",
"8	c #1C2022",
"9	c #75494B",
"0	c #FFA0A3",
"a	c #1E1414",
"b	c #452E2F",
"c	c #303C3F",
"d	c #313131",
"e	c #6A6A6A",
"f	c #425257",
"g	c #585858",
"h	c #0F1314",
"i	c #45565C",
"j	c #1C2225",
"k	c #232323",
"l	c #4D4D4D",
"                             ",
"      .+@######$%&##@*=====- ",
"     .;>,'''''')!~'',{]]]]]^ ",
"    .;/{,'''''')!('',{]]]]]^ ",
"   .;/]{,'''''')!('',{]]]]]^ ",
"  .;/]]{,'''''')!('',{]]]]]^ ",
" ._/]]]{,'''''')!('',{]]]]]^ ",
" :/]]]]{,''''''<[}'',{]]]]]^ ",
" ^]]]]]{|11111111111|{]]]]]^ ",
" ^]]]]]{2222222222222{]]]]]^ ",
" ^]]]]]]/////////////]]]]]]^ ",
" ^]]]]]]]]]]]]]]]]]]]]]]]]]^ ",
" ^]]]]]]]]]]]]]]]]]]]]]]]]]^ ",
" ^]]]]]]]]]]]]]]]]]]]]]]]]]^ ",
" ^]]]]34444444444444443]]]]^ ",
" ^]]]]56777777777777765]]]]^ ",
" ^]]]]89000000000000098]]]]^ ",
" ^]]]]89000000000000098]]]]^ ",
" ^]]]]89000000000000098]]]]^ ",
" ^]]]]5abbbbbbbbbbbbba5]]]]^ ",
" ^]]]]cdeeeeeeeeeeeeedc]]]]^ ",
" ^]]]]fg'''''''''''''gf]]]]^ ",
" ^]]]]fg'''''''''''''gf]]]]^ ",
" ^]]]]fg'''''''''''''gf]]]]^ ",
" ^]]]]fg'''''''''''''gf]]]]^ ",
" ^]]]]fg'''''''''''''gf]]]]^ ",
" ^]]]]fg'''''''''''''gf]]]]^ ",
" hiiiijklllllllllllllkjiiiih ",
" 222222222222222222222222222 "};
