/* XPM */
static const char * Setting_Icon_Small[] = {
"15 15 85 1",
" 	c None",
".	c #030404",
"+	c #0F1314",
"@	c #060808",
"#	c #060707",
"$	c #191E22",
"%	c #ADD8E6",
"&	c #3F4E54",
"*	c #060708",
"=	c #080B0B",
"-	c #597077",
";	c #07080A",
">	c #070909",
",	c #0A0C0D",
"'	c #14181A",
")	c #0C0F10",
"!	c #06080A",
"~	c #080A0A",
"{	c #50646A",
"]	c #0A0E0F",
"^	c #5B7078",
"/	c #8FB3BE",
"(	c #46575C",
"_	c #A3CCDA",
":	c #A9D2E0",
"<	c #576E75",
"[	c #0A0D0D",
"}	c #7B99A4",
"|	c #82A2AC",
"1	c #070A0A",
"2	c #0C0E10",
"3	c #88A9B5",
"4	c #9AC1CD",
"5	c #6B858D",
"6	c #93B7C3",
"7	c #9CC3CF",
"8	c #07090A",
"9	c #070708",
"0	c #53666C",
"a	c #1C1E1F",
"b	c #525454",
"c	c #242627",
"d	c #3C494C",
"e	c #6F8A93",
"f	c #080A0B",
"g	c #050606",
"h	c #242C2F",
"i	c #0B0D0E",
"j	c #FFFFFF",
"k	c #333536",
"l	c #0B0E0F",
"m	c #0E1112",
"n	c #131819",
"o	c #545656",
"p	c #8B8B8B",
"q	c #47575C",
"r	c #121617",
"s	c #181E1F",
"t	c #45565B",
"u	c #0D0F11",
"v	c #434545",
"w	c #6D8790",
"x	c #0D1011",
"y	c #090B0C",
"z	c #424444",
"A	c #282E31",
"B	c #090A0B",
"C	c #08090A",
"D	c #0F1213",
"E	c #050708",
"F	c #52666D",
"G	c #708C95",
"H	c #0E1213",
"I	c #617981",
"J	c #77969F",
"K	c #040505",
"L	c #080A0C",
"M	c #121718",
"N	c #0D1112",
"O	c #050607",
"P	c #76929C",
"Q	c #14191B",
"R	c #1D2628",
"S	c #374449",
"T	c #181D1F",
"      .+@      ",
"   #  $%&  *   ",
"  =-;>,')!~{]  ",
" #^/)(_%:<[}|. ",
"  123%456%7)8  ",
"  9(%0abcd%ef  ",
"ghi_4ajjjk}%lhg",
"m%n%5ojjjpq%r%s",
">tu:6cjjjvw%xty",
"  ;<%dkpzA%|B  ",
"  Ci7%}qw%:DE  ",
" *F})G%%%|HIJK ",
"  y|fLlMNBOPQ  ",
"   .  R%S  K   ",
"      KT>      "};
