/* XPM */
static const char * Setting_Icon[] = {
"29 29 123 2",
"  	c None",
". 	c #000000",
"+ 	c #010101",
"@ 	c #060808",
"# 	c #4A5C63",
"$ 	c #20282B",
"% 	c #0E1213",
"& 	c #ADD8E6",
"* 	c #4B5E64",
"= 	c #000101",
"- 	c #668088",
"; 	c #111516",
"> 	c #040505",
", 	c #192022",
"' 	c #0F1315",
") 	c #161C1E",
"! 	c #101415",
"~ 	c #020202",
"{ 	c #75939C",
"] 	c #0A0C0D",
"^ 	c #6D8790",
"/ 	c #A7D0DD",
"( 	c #080A0A",
"_ 	c #1A2123",
": 	c #283135",
"< 	c #20272A",
"[ 	c #0E1113",
"} 	c #82A2AC",
"| 	c #9FC6D3",
"1 	c #69848C",
"2 	c #121718",
"3 	c #273033",
"4 	c #8FB3BE",
"5 	c #A1C9D6",
"6 	c #44555A",
"7 	c #030404",
"8 	c #7B99A4",
"9 	c #9AC1CD",
"0 	c #101416",
"a 	c #7F9EA8",
"b 	c #9FC8D4",
"c 	c #13181A",
"d 	c #728E98",
"e 	c #3D4D52",
"f 	c #121618",
"g 	c #96BDC9",
"h 	c #ABD6E4",
"i 	c #1A2022",
"j 	c #020303",
"k 	c #354347",
"l 	c #A7D2DE",
"m 	c #435459",
"n 	c #070809",
"o 	c #0B0E0E",
"p 	c #2D373B",
"q 	c #93B7C3",
"r 	c #A5CEDC",
"s 	c #070909",
"t 	c #263033",
"u 	c #8DB0BB",
"v 	c #323232",
"w 	c #5B5B5B",
"x 	c #434343",
"y 	c #080808",
"z 	c #5D747C",
"A 	c #68818A",
"B 	c #101010",
"C 	c #DEDEDE",
"D 	c #FFFFFF",
"E 	c #FBFBFB",
"F 	c #3C3C3C",
"G 	c #010202",
"H 	c #090B0C",
"I 	c #1F2729",
"J 	c #080A0B",
"K 	c #181919",
"L 	c #2F3B3F",
"M 	c #191F21",
"N 	c #313D42",
"O 	c #1B2124",
"P 	c #8C8C8C",
"Q 	c #A3CCDA",
"R 	c #53686F",
"S 	c #89ABB6",
"T 	c #283236",
"U 	c #CECECE",
"V 	c #87A9B3",
"W 	c #6B858D",
"X 	c #ABD4E2",
"Y 	c #161B1D",
"Z 	c #A8A8A8",
"` 	c #5A7178",
" .	c #576D74",
"..	c #131719",
"+.	c #383838",
"@.	c #08090A",
"#.	c #3C4C51",
"$.	c #46575D",
"%.	c #929292",
"&.	c #52676E",
"*.	c #0F1314",
"=.	c #000001",
"-.	c #5E757D",
";.	c #8E8E8E",
">.	c #293436",
",.	c #8BADB8",
"'.	c #020203",
").	c #181E20",
"!.	c #14191A",
"~.	c #A3CAD8",
"{.	c #47585E",
"].	c #7D9BA5",
"^.	c #1A2023",
"/.	c #415156",
"(.	c #74919B",
"_.	c #181D20",
":.	c #405055",
"<.	c #040405",
"[.	c #303C40",
"}.	c #283335",
"|.	c #010102",
"1.	c #111617",
"2.	c #313C41",
"                      . + + + + + +                       ",
"                      . @ # # # $ +                       ",
"            .         . % & & & * +         .             ",
"          + . =       . % & & & * +       + . +           ",
"        + = - ; =     . > , ' ) ! +     + ~ { ] +         ",
"      + = ^ & / ; = + . ( _ : < [ . . + ~ } & | ] +       ",
"    . . 1 & & | 2 . 3 4 & & & & & 5 6 ~ 7 8 & & 9 7 =     ",
"      = 0 / | ( > a & & & & & & & & & b c + d & e . .     ",
"        = [ f > g & & & & & & & & & & & h i j k . .       ",
"          = . a & & & l m ! n o p q & & & r s + .         ",
"          + t & & & u s + v w x y + z & & & A .           ",
"+ + + + + . 4 & & l s B C D D D E F = 8 & & & s + + + + . ",
"G H I I J ( & & & m ~ C D D D D D D K 2 & & & L j I I M . ",
"G N & & , O & & & ! v D D D D D D D P . Q & & R G & & S . ",
"G N & & ! T & & & @ w D D D D D D D U . V & & W . X & S . ",
"G N & & Y I & & & o x D D D D D D D Z . 9 & & ` + & & S . ",
"G M  . ...% & & & p y E D D D D D D +.@.& & & #.7  . .$.. ",
"+ . . . . . b & & q + F D D D D D %.. &.& & & *.=.. . . . ",
"          . 6 & & & -.= K ;.U Z +.. >.& & & ,..           ",
"          + '.b & & & 8 2 . . . ( &.& & & & ).+           ",
"        + ~ 7 !.h & & & & ~.V 9 & & & & & {.. o =         ",
"      + ~ } ].+ ^.r & & & & & & & & & & {.. /./ ; =       ",
"    . . (.& & d j n A & & & & & & & ,._.. :.& & / <..     ",
"      + ( 9 & & k + . s [.R W ` e *.. + H Q & & }..       ",
"        + ( 9 :.. .   . j G . = j +     = [ Q }..         ",
"          + 7 . .     . Y & & & e |.      = <..           ",
"            = .       . Y & & & e |.        .             ",
"                      . 1.V V V 2.|.                      ",
"                      . . . . . . +                       "};
