/* XPM */
static const char * Validate_Icon_Small[] = {
"15 15 27 1",
" 	c None",
".	c #000000",
"+	c #1C1C1C",
"@	c #646464",
"#	c #6F6F6F",
"$	c #1A1F20",
"%	c #45494A",
"&	c #3F4344",
"*	c #3F4E54",
"=	c #8AADB8",
"-	c #374549",
";	c #405055",
">	c #232B2D",
",	c #ACD7E5",
"'	c #ADD8E6",
")	c #45565B",
"!	c #21282C",
"~	c #232B2F",
"{	c #222A2E",
"]	c #22292D",
"^	c #242B2F",
"/	c #1B2123",
"(	c #91B5C1",
"_	c #354247",
":	c #1A2224",
"<	c #293337",
"[	c #1B2225",
"               ",
"     .   .     ",
"               ",
"     +@#@+     ",
"     $%&%$     ",
"    *==-==;    ",
" . >,'')'',> . ",
"  .!''')'''!.  ",
"   ~''')'''~   ",
"   {''')'''{   ",
"   ]''')''']   ",
"   ^''')'''^   ",
" . /('')''(/ . ",
"    -'')''_    ",
"    :<<[<<:    "};
