/* XPM */
static const char * Validate_Icon[] = {
"29 29 37 1",
" 	c None",
".	c #000000",
"+	c #020202",
"@	c #070707",
"#	c #080808",
"$	c #030303",
"%	c #595959",
"&	c #373737",
"*	c #BFBFBF",
"=	c #363636",
"-	c #585858",
";	c #909090",
">	c #050606",
",	c #050507",
"'	c #0E1314",
")	c #95BAC6",
"!	c #ADD8E6",
"~	c #9FC7D4",
"{	c #98BECA",
"]	c #121617",
"^	c #020404",
"/	c #050505",
"(	c #50646A",
"_	c #040404",
":	c #020204",
"<	c #313D42",
"[	c #020303",
"}	c #8AACB7",
"|	c #8CAFBB",
"1	c #334044",
"2	c #333F45",
"3	c #060608",
"4	c #1D2528",
"5	c #45565C",
"6	c #405055",
"7	c #010101",
"8	c #1D2628",
"                             ",
"       ..           ..       ",
"         ..       ...        ",
"          ..     ..          ",
"           .     .           ",
"           +@###@+           ",
"           $%%%%%$           ",
"          .&*****=+          ",
"          @-;;;;;-@          ",
"        >...........>        ",
"       ,')!!!~.~!!!{]>    .. ",
"  .   ^')!!!!~.~!!!!)'^  ..  ",
"   .  /(!!!!!~.~!!!!!(/  .   ",
"   ..._(!!!!!~.~!!!!!(_..    ",
"    ..$(!!!!!~.~!!!!!($..    ",
"      /(!!!!!~.~!!!!!(/      ",
"      /(!!!!!~.~!!!!!(/      ",
" .....$(!!!!!~.~!!!!!($..... ",
"      _(!!!!!~.~!!!!!(_      ",
"      /(!!!!!~.~!!!!!(/      ",
"    .._(!!!!!~.~!!!!!(_..    ",
"    .._(!!!!!~.~!!!!!(_..    ",
"   .  /(!!!!!~.~!!!!!(/  .   ",
"   .  :<!!!!!~.~!!!!!<:  ..  ",
"  .    [}!!!!~.~!!!!|+    .  ",
" ..    >1!!!!~.~!!!!23     . ",
"        [}!!!~.~!!!|+        ",
"        >455567655583        ",
"         ...........         "};
