/* XPM */
static const char * Validate_Icon[] = {
"29 29 36 1",
" 	c None",
".	c #000000",
"+	c #020202",
"@	c #070707",
"#	c #080808",
"$	c #030303",
"%	c #595959",
"&	c #373737",
"*	c #BFBFBF",
"=	c #363636",
"-	c #585858",
";	c #909090",
">	c #060506",
",	c #070307",
"'	c #150D15",
")	c #CE8CCE",
"!	c #F0A3F0",
"~	c #DD96DD",
"{	c #D38FD3",
"]	c #181118",
"^	c #040204",
"/	c #CF8DCF",
"(	c #050305",
"_	c #6F4B6F",
":	c #030203",
"<	c #040304",
"[	c #442E44",
"}	c #BF82BF",
"|	c #C384C3",
"1	c #473047",
"2	c #080508",
"3	c #291B29",
"4	c #604160",
"5	c #593C59",
"6	c #010101",
"7	c #2A1C2A",
"                             ",
"       ..           ..       ",
"         ..       ...        ",
"          ..     ..          ",
"           .     .           ",
"           +@###@+           ",
"           $%%%%%$           ",
"          .&*****=+          ",
"          @-;;;;;-@          ",
"        >...........>        ",
"       ,')!!!~.~!!!{]>    .. ",
"  .   ^'/!!!!~.~!!!!/'^  ..  ",
"   .  (_!!!!!~.~!!!!!_(  .   ",
"   ...^_!!!!!~.~!!!!!_^..    ",
"    ..:_!!!!!~.~!!!!!_:..    ",
"      (_!!!!!~.~!!!!!_(      ",
"      (_!!!!!~.~!!!!!_(      ",
" .....:_!!!!!~.~!!!!!_:..... ",
"      <_!!!!!~.~!!!!!_<      ",
"      (_!!!!!~.~!!!!!_(      ",
"    ..^_!!!!!~.~!!!!!_^..    ",
"    ..^_!!!!!~.~!!!!!_^..    ",
"   .  (_!!!!!~.~!!!!!_(  .   ",
"   .  ^[!!!!!~.~!!!!![^  ..  ",
"  .    :}!!!!~.~!!!!|:    .  ",
" ..    >1!!!!~.~!!!!12     . ",
"        :}!!!~.~!!!|:        ",
"        >344456544472        ",
"         ...........         "};
